<?xml version="1.0" encoding="UTF-8" standalone="no"?>
<svg
   xmlns:dc="http://purl.org/dc/elements/1.1/"
   xmlns:cc="http://creativecommons.org/ns#"
   xmlns:rdf="http://www.w3.org/1999/02/22-rdf-syntax-ns#"
   xmlns:svg="http://www.w3.org/2000/svg"
   xmlns="http://www.w3.org/2000/svg"
   xmlns:sodipodi="http://sodipodi.sourceforge.net/DTD/sodipodi-0.dtd"
   xmlns:inkscape="http://www.inkscape.org/namespaces/inkscape"
   version="1.1"
   viewBox="0 -240 25 41"
   id="svg6"
   sodipodi:docname="marker-search.svg"
   width="25"
   height="41"
   inkscape:version="0.92.1 r15371">
  <metadata
     id="metadata12">
    <rdf:RDF>
      <cc:Work
         rdf:about="">
        <dc:format>image/svg+xml</dc:format>
        <dc:type
           rdf:resource="http://purl.org/dc/dcmitype/StillImage" />
        <dc:title />
      </cc:Work>
    </rdf:RDF>
  </metadata>
  <defs
     id="defs10" />
  <sodipodi:namedview
     pagecolor="#ffffff"
     bordercolor="#666666"
     borderopacity="1"
     objecttolerance="10"
     gridtolerance="10"
     guidetolerance="10"
     inkscape:pageopacity="0"
     inkscape:pageshadow="2"
     inkscape:window-width="1920"
     inkscape:window-height="1017"
     id="namedview8"
     showgrid="false"
     inkscape:zoom="12.586667"
     inkscape:cx="14.387066"
     inkscape:cy="19.602977"
     inkscape:window-x="-8"
     inkscape:window-y="-8"
     inkscape:window-maximized="1"
     inkscape:current-layer="svg6" />
  <path
     style="fill:#010101;fill-opacity:0.94117647;stroke:#e8e8e8;stroke-width:0.95876104;stroke-miterlimit:4;stroke-dasharray:none;stroke-opacity:1"
     d="M 12.484375 0.66210938 C 9.2195266 0.66210938 6.4281567 1.8246006 4.1132812 4.1503906 C 1.7984059 6.4761806 0.64257812 9.2542381 0.64257812 12.486328 C 0.64257812 19.278088 4.5831169 28.440003 12.466797 39.970703 C 20.394154 28.440003 24.357422 19.278088 24.357422 12.486328 C 24.357422 9.2542381 23.194936 6.4761806 20.869141 4.1503906 C 18.543346 1.8246006 15.749223 0.66210938 12.484375 0.66210938 z M 12.5 6.8183594 A 6.2645049 6.2645049 0 0 1 18.763672 13.083984 A 6.2645049 6.2645049 0 0 1 12.5 19.347656 A 6.2645049 6.2645049 0 0 1 6.2363281 13.083984 A 6.2645049 6.2645049 0 0 1 12.5 6.8183594 z "
     transform="translate(0,-240)"
     id="path2" />
</svg>
