<?xml version="1.0" encoding="UTF-8" standalone="no"?>
<svg
   xmlns:dc="http://purl.org/dc/elements/1.1/"
   xmlns:cc="http://creativecommons.org/ns#"
   xmlns:rdf="http://www.w3.org/1999/02/22-rdf-syntax-ns#"
   xmlns:svg="http://www.w3.org/2000/svg"
   xmlns="http://www.w3.org/2000/svg"
   xmlns:sodipodi="http://sodipodi.sourceforge.net/DTD/sodipodi-0.dtd"
   xmlns:inkscape="http://www.inkscape.org/namespaces/inkscape"
   version="1.1"
   viewBox="0 -240 1200 1200"
   id="svg6"
   sodipodi:docname="exit-full-screen-p.svg"
   inkscape:version="0.92.4 (5da689c313, 2019-01-14)">
  <metadata
     id="metadata12">
    <rdf:RDF>
      <cc:Work
         rdf:about="">
        <dc:format>image/svg+xml</dc:format>
        <dc:type
           rdf:resource="http://purl.org/dc/dcmitype/StillImage" />
        <dc:title></dc:title>
      </cc:Work>
    </rdf:RDF>
  </metadata>
  <defs
     id="defs10" />
  <sodipodi:namedview
     pagecolor="#ffffff"
     bordercolor="#666666"
     borderopacity="1"
     objecttolerance="10"
     gridtolerance="10"
     guidetolerance="10"
     inkscape:pageopacity="0"
     inkscape:pageshadow="2"
     inkscape:window-width="1856"
     inkscape:window-height="1057"
     id="namedview8"
     showgrid="false"
     inkscape:zoom="0.39333333"
     inkscape:cx="568.58446"
     inkscape:cy="418.86271"
     inkscape:window-x="-8"
     inkscape:window-y="-8"
     inkscape:window-maximized="1"
     inkscape:current-layer="svg6" />
  <path
     style="fill:#078aa3;fill-opacity:1"
     d="M 324 71 C 311.33333 71 300.5 75.5 291.5 84.5 C 282.5 93.5 278 104.33333 278 117 L 278 252 L 114 86 C 104.66667 77.33333 93.83333 73 81.5 73 C 69.16667 73 58.66667 77.33333 50 86 C 40.66667 95.33333 36 106.16667 36 118.5 C 36 130.83333 40.66667 141 50 149 L 215 314 L 79 314 C 67 314 56.66667 318.66667 48 328 C 39.33333 337.33333 35 348.33333 35 361 C 35 373 39.33333 383.33333 48 392 C 56.66667 400.66667 67 405 79 405 L 370 405 L 370 117 C 370 104.33333 365.5 93.5 356.5 84.5 C 347.5 75.5 336.66667 71 324 71 z M 874 71 C 861.3333 71 850.8333 75.5 842.5 84.5 C 834.1667 93.5 830 104.33333 830 117 L 830 405 L 1118 405 C 1130.6667 405 1141.6667 400.66667 1151 392 C 1160.3333 383.33333 1165 373 1165 361 C 1165 348.33333 1160.3333 337.33333 1151 328 C 1141.6667 318.66667 1130.6667 314 1118 314 L 984 314 L 1148 149 C 1157.3333 141 1162 130.83333 1162 118.5 C 1162 106.16667 1157.3333 95.33333 1148 86 C 1140 77.33333 1129.6667 73 1117 73 C 1104.3333 73 1093.6667 77.33333 1085 86 L 920 252 L 920 117 C 920 104.33333 915.3333 93.5 906 84.5 C 896.6667 75.5 886 71 874 71 z M 601 465 C 582.33333 465 564.83333 468.5 548.5 475.5 C 532.16667 482.5 517.83333 492.16667 505.5 504.5 C 493.16667 516.83333 483.33333 531.33333 476 548 C 468.66667 564.66667 465 582.33333 465 601 C 465 619.66667 468.66667 637.16667 476 653.5 C 483.33333 669.83333 493.16667 684 505.5 696 C 517.83333 708 532.16667 717.5 548.5 724.5 C 564.83333 731.5 582.33333 735 601 735 C 619.66667 735 637.16667 731.5 653.5 724.5 C 669.83333 717.5 684 708 696 696 C 708 684 717.5 669.83333 724.5 653.5 C 731.5 637.16667 735 619.66667 735 601 C 735 582.33333 731.5 564.66667 724.5 548 C 717.5 531.33333 708 516.83333 696 504.5 C 684 492.16667 669.83333 482.5 653.5 475.5 C 637.16667 468.5 619.66667 465 601 465 z M 79 795 C 67 795 56.66667 799.1667 48 807.5 C 39.33333 815.8333 35 826.6667 35 840 C 35 852 39.33333 862.5 48 871.5 C 56.66667 880.5 67 885 79 885 L 215 885 L 50 1050 C 40.66667 1058.6667 36 1069.3333 36 1082 C 36 1094.6667 40.66667 1105.6667 50 1115 C 58.66667 1123.6667 69.16667 1128 81.5 1128 C 93.83333 1128 104.66667 1123.6667 114 1115 L 278 949 L 278 1082 C 278 1095.3333 282.5 1106.5 291.5 1115.5 C 300.5 1124.5 311.33333 1129 324 1129 C 336.66667 1129 347.5 1124.5 356.5 1115.5 C 365.5 1106.5 370 1095.3333 370 1082 L 370 795 L 79 795 z M 830 795 L 830 1082 C 830 1095.3333 834.1667 1106.5 842.5 1115.5 C 850.8333 1124.5 861.3333 1129 874 1129 C 886 1129 896.6667 1124.5 906 1115.5 C 915.3333 1106.5 920 1095.3333 920 1082 L 920 949 L 1085 1115 C 1093.6667 1123.6667 1104.3333 1128 1117 1128 C 1129.6667 1128 1140 1123.6667 1148 1115 C 1157.3333 1105.6667 1162 1094.6667 1162 1082 C 1162 1069.3333 1157.3333 1058.6667 1148 1050 L 984 885 L 1118 885 C 1130.6667 885 1141.6667 880.5 1151 871.5 C 1160.3333 862.5 1165 852 1165 840 C 1165 826.6667 1160.3333 815.8333 1151 807.5 C 1141.6667 799.1667 1130.6667 795 1118 795 L 830 795 z "
     transform="translate(0,-240)"
     id="path2" />
</svg>
